PathFileType	4	(x/y/z)	S08_SL_Cal_T01
DataRate	CameraRate	NumFrames	NumMarkers	Units	OrigDataRate	OrigDataStartFrame	OrigNumFrames
240	240	8	51	mm	240	1501	2400
Frame#	Time	Sternum			R.Acromium			L.Acromium			Top.Head			R.ASIS			L.ASIS			R.PSIS			L.PSIS			R.Great.Tro			L.Great.Tro			R.Iliac.Crest			L.Iliac.Crest			V.Sacral			R.Thigh.Upper.Post			R.Thigh.Lower.Ant			R.Thigh.Lower.Post			R.Thigh.Upper.Ant			R.Knee.Lat			R.Knee.Med			R.Shank.Upper.Post			R.Shank.Lower.Ant			R.Shank.Lower.Post			R.Shank.Upper.Ant			R.Ankle.Lat			R.Ankle.Med			R.Heel.Upper			R.Heel.Med			R.Heel.Lat			R.Toe.Lat			R.Toe.Med			R.Toe.Tip			L.Thigh.Upper.Post			L.Thigh.Lower.Ant			L.Thigh.Lower.Post			L.Thigh.Upper.Ant			L.Knee.Lat			L.Knee.Med			L.Shank.Upper.Post			L.Shank.Lower.Ant			L.Shank.Lower.Post			L.Shank.Upper.Ant			L.Ankle.Lat			L.Ankle.Med			L.Heel.Upper			L.Heel.Med			L.Heel.Lat			L.Toe.Lat			L.Toe.Med			L.Toe.Tip			Cervical.Spine			Back			
		X1	Y1	Z1	X2	Y2	Z2	X3	Y3	Z3	X4	Y4	Z4	X5	Y5	Z5	X6	Y6	Z6	X7	Y7	Z7	X8	Y8	Z8	X9	Y9	Z9	X10	Y10	Z10	X11	Y11	Z11	X12	Y12	Z12	X13	Y13	Z13	X14	Y14	Z14	X15	Y15	Z15	X16	Y16	Z16	X17	Y17	Z17	X18	Y18	Z18	X19	Y19	Z19	X20	Y20	Z20	X21	Y21	Z21	X22	Y22	Z22	X23	Y23	Z23	X24	Y24	Z24	X25	Y25	Z25	X26	Y26	Z26	X27	Y27	Z27	X28	Y28	Z28	X29	Y29	Z29	X30	Y30	Z30	X31	Y31	Z31	X32	Y32	Z32	X33	Y33	Z33	X34	Y34	Z34	X35	Y35	Z35	X36	Y36	Z36	X37	Y37	Z37	X38	Y38	Z38	X39	Y39	Z39	X40	Y40	Z40	X41	Y41	Z41	X42	Y42	Z42	X43	Y43	Z43	X44	Y44	Z44	X45	Y45	Z45	X46	Y46	Z46	X47	Y47	Z47	X48	Y48	Z48	X49	Y49	Z49	X50	Y50	Z50	X51	Y51	Z51	

1501	6.25	564.18	1246	331.1	421.66	1482.6	498.69	417.55	1498	163.8	451.29	1805.4	343.95	535.06	1021.3	435.09	543.06	1025.7	202	338.88	1051.9	354.63	345.18	1059.9	261.83	452.84	924.61	502.04	438.49	928.84	136.37	439.61	1091.9	479.34	455.25	1110.7	175.15	322.45	1018	305.09	399.15	737.47	515.16	458.41	622.79	500.21	390.76	646.7	509.53	475.85	716.75	508.79	409.07	530.04	499.68	388.98	518.52	373.32	326.92	355.84	525.7	389.79	291.78	518.21	326.98	278	525.49	392.04	368.83	518.4	335.43	102.96	509.2	368.04	112.3	434.09	291.33	66.241	463.98	305.58	39.53	438.21	294.89	42.666	499.38	NaN	NaN	NaN	491.62	44.217	440.63	554.13	59.172	490.95	395.17	737.73	121.84	465.77	633.25	125.63	398.25	646.31	124.23	465.66	722.31	115.32	396.88	534.26	129.42	406.52	513.69	253.96	322.57	358.22	110.8	389.56	268.43	111.41	319.57	284.01	117.47	386.46	345.06	106.84	345.81	105.55	103.07	375.16	102.98	185.69	295.11	76.275	150.48	311.39	42.173	179.52	301.63	48.833	116.6	475.18	38.452	67.379	503.04	44.06	180.54	562.58	59.073	126.9	353.87	1525.6	321.76	330.44	1243.9	335.09
1502	6.2542	564.18	1246	331.11	421.67	1482.6	498.69	417.59	1498	163.8	451.29	1805.4	343.94	535.05	1021.3	435.08	543.04	1025.7	202	338.86	1051.9	354.62	345.16	1059.9	261.83	452.83	924.61	502.03	438.48	928.85	136.36	439.63	1091.9	479.33	455.24	1110.7	175.15	322.43	1018.1	305.09	399.13	737.48	515.15	458.4	622.79	500.2	390.75	646.7	509.52	475.84	716.75	508.79	409.05	530.04	499.68	388.97	518.52	373.31	326.91	355.85	525.7	389.79	291.78	518.21	326.98	278	525.49	392.03	368.83	518.4	335.43	102.96	509.2	368.04	112.3	434.09	291.33	66.24	463.98	305.58	39.53	438.21	294.89	42.667	499.38	NaN	NaN	NaN	491.62	44.217	440.63	554.13	59.172	490.95	395.16	737.74	121.83	465.76	633.25	125.62	398.24	646.31	124.22	465.65	722.32	115.32	396.87	534.26	129.42	406.51	513.7	253.96	322.56	358.22	110.79	389.56	268.43	111.41	319.56	284.01	117.47	386.46	345.06	106.84	345.81	105.55	103.07	375.16	102.98	185.69	295.11	76.275	150.48	311.39	42.174	179.52	301.63	48.833	116.6	475.18	38.451	67.379	503.04	44.061	180.54	562.58	59.073	126.9	353.88	1525.6	321.76	330.45	1243.9	335.1
1503	6.2583	564.18	1246	331.12	421.68	1482.6	498.69	417.63	1498	163.8	451.29	1805.4	343.94	535.03	1021.3	435.07	543.03	1025.7	201.99	338.85	1051.9	354.62	345.15	1059.9	261.82	452.81	924.61	502.02	438.46	928.85	136.35	439.63	1091.9	479.31	455.24	1110.7	175.16	322.42	1018.1	305.08	399.12	737.48	515.13	458.38	622.8	500.2	390.73	646.71	509.51	475.82	716.75	508.78	409.04	530.05	499.67	388.96	518.52	373.31	326.9	355.85	525.7	389.78	291.78	518.21	326.97	278	525.49	392.02	368.83	518.4	335.43	102.96	509.19	368.04	112.3	434.09	291.33	66.24	463.98	305.58	39.531	438.21	294.89	42.667	499.38	NaN	NaN	NaN	491.62	44.217	440.63	554.13	59.171	490.95	395.15	737.74	121.83	465.75	633.25	125.61	398.23	646.31	124.22	465.64	722.32	115.31	396.87	534.26	129.41	406.51	513.7	253.95	322.56	358.22	110.79	389.56	268.43	111.41	319.56	284.01	117.47	386.46	345.06	106.84	345.81	105.55	103.07	375.16	102.98	185.69	295.11	76.275	150.48	311.39	42.174	179.52	301.63	48.833	116.6	475.18	38.451	67.378	503.04	44.061	180.54	562.58	59.073	126.9	353.89	1525.6	321.76	330.45	1243.9	335.1
1504	6.2625	564.18	1246	331.12	421.69	1482.7	498.69	417.66	1498	163.8	451.29	1805.4	343.94	535.02	1021.3	435.07	543.01	1025.7	201.98	338.83	1051.9	354.61	345.13	1059.9	261.82	452.79	924.62	502.01	438.44	928.86	136.35	439.64	1091.9	479.29	455.24	1110.7	175.16	322.4	1018.1	305.07	399.1	737.48	515.12	458.37	622.8	500.2	390.71	646.72	509.51	475.81	716.75	508.78	409.03	530.05	499.67	388.96	518.52	373.3	326.89	355.85	525.7	389.77	291.78	518.21	326.97	278	525.48	392.01	368.83	518.39	335.43	102.97	509.19	368.04	112.3	434.09	291.32	66.24	463.98	305.58	39.531	438.21	294.89	42.668	499.38	NaN	NaN	NaN	491.62	44.216	440.63	554.13	59.171	490.95	395.14	737.74	121.82	465.74	633.26	125.61	398.22	646.31	124.21	465.63	722.33	115.31	396.86	534.26	129.41	406.51	513.7	253.94	322.56	358.22	110.79	389.56	268.44	111.4	319.56	284.01	117.47	386.45	345.06	106.83	345.81	105.55	103.07	375.16	102.98	185.68	295.11	76.276	150.48	311.39	42.175	179.52	301.63	48.833	116.6	475.18	38.451	67.378	503.04	44.062	180.54	562.58	59.073	126.9	353.9	1525.6	321.75	330.45	1243.9	335.1
1505	6.2667	564.19	1246	331.13	421.7	1482.7	498.69	417.7	1498	163.8	451.29	1805.4	343.93	535.01	1021.3	435.06	542.99	1025.7	201.98	338.82	1052	354.61	345.12	1059.9	261.82	452.77	924.62	502	438.42	928.86	136.34	439.63	1091.9	479.27	455.23	1110.7	175.16	322.39	1018.1	305.07	399.09	737.49	515.11	458.35	622.81	500.2	390.7	646.72	509.5	475.79	716.76	508.77	409.02	530.05	499.66	388.95	518.52	373.3	326.89	355.85	525.7	389.77	291.78	518.2	326.96	278	525.48	392	368.84	518.39	335.43	102.97	509.19	368.04	112.3	434.09	291.32	66.241	463.98	305.58	39.531	438.21	294.89	42.668	499.38	NaN	NaN	NaN	491.62	44.216	440.63	554.13	59.171	490.95	395.13	737.74	121.82	465.74	633.26	125.6	398.21	646.31	124.21	465.62	722.33	115.3	396.85	534.26	129.4	406.5	513.7	253.94	322.55	358.22	110.78	389.55	268.44	111.4	319.55	284	117.47	386.45	345.06	106.83	345.81	105.56	103.07	375.16	102.99	185.68	295.11	76.276	150.48	311.39	42.175	179.52	301.64	48.833	116.6	475.18	38.45	67.378	503.04	44.062	180.54	562.58	59.074	126.9	353.92	1525.6	321.75	330.46	1243.9	335.11
1506	6.2708	564.19	1246	331.14	421.71	1482.7	498.69	417.73	1498	163.8	451.29	1805.5	343.93	534.99	1021.3	435.05	542.98	1025.7	201.97	338.8	1052	354.6	345.1	1060	261.81	452.75	924.63	501.99	438.41	928.87	136.33	439.61	1091.9	479.25	455.23	1110.7	175.16	322.37	1018.1	305.06	399.07	737.49	515.1	458.34	622.82	500.2	390.68	646.73	509.49	475.77	716.76	508.77	409	530.05	499.66	388.94	518.52	373.29	326.88	355.85	525.69	389.76	291.79	518.2	326.95	278	525.47	391.99	368.84	518.39	335.43	102.97	509.19	368.04	112.3	434.09	291.32	66.241	463.98	305.58	39.531	438.2	294.89	42.668	499.38	NaN	NaN	NaN	491.62	44.216	440.63	554.13	59.17	490.95	395.12	737.75	121.81	465.73	633.26	125.6	398.2	646.32	124.2	465.61	722.33	115.3	396.85	534.27	129.4	406.5	513.7	253.94	322.55	358.22	110.78	389.55	268.44	111.4	319.55	284	117.46	386.45	345.06	106.83	345.81	105.56	103.07	375.16	102.99	185.68	295.11	76.276	150.48	311.39	42.176	179.52	301.64	48.833	116.6	475.18	38.45	67.378	503.04	44.063	180.54	562.58	59.075	126.9	353.93	1525.6	321.75	330.46	1244	335.11
1507	6.275	564.19	1246	331.15	421.72	1482.7	498.69	417.77	1498.1	163.8	451.29	1805.5	343.92	534.97	1021.3	435.05	542.96	1025.7	201.97	338.79	1052	354.59	345.08	1060	261.81	452.73	924.63	501.98	438.39	928.87	136.33	439.59	1091.9	479.24	455.23	1110.7	175.16	322.35	1018.1	305.05	399.05	737.49	515.09	458.32	622.82	500.19	390.66	646.74	509.49	475.76	716.76	508.77	408.99	530.06	499.66	388.93	518.52	373.29	326.87	355.85	525.69	389.75	291.79	518.2	326.95	278	525.47	391.98	368.84	518.38	335.43	102.97	509.19	368.04	112.3	434.09	291.32	66.241	463.98	305.58	39.531	438.2	294.89	42.667	499.38	NaN	NaN	NaN	491.62	44.216	440.63	554.13	59.17	490.95	395.11	737.75	121.81	465.72	633.27	125.59	398.19	646.32	124.2	465.6	722.34	115.29	396.84	534.27	129.39	406.49	513.7	253.93	322.54	358.22	110.78	389.55	268.44	111.4	319.55	284	117.46	386.44	345.06	106.83	345.81	105.56	103.07	375.16	102.99	185.68	295.11	76.276	150.48	311.39	42.176	179.52	301.64	48.833	116.6	475.18	38.45	67.378	503.04	44.063	180.54	562.58	59.077	126.9	353.94	1525.6	321.74	330.46	1244	335.12
1508	6.2792	564.19	1246	331.15	421.73	1482.7	498.69	417.8	1498.1	163.8	451.29	1805.5	343.92	534.96	1021.3	435.04	542.94	1025.7	201.96	338.77	1052	354.59	345.07	1060	261.8	452.71	924.63	501.97	438.37	928.88	136.32	439.56	1091.9	479.22	455.22	1110.8	175.16	322.34	1018.1	305.04	399.04	737.5	515.08	458.3	622.83	500.19	390.64	646.75	509.48	475.74	716.77	508.76	408.98	530.06	499.65	388.92	518.52	373.28	326.86	355.85	525.68	389.75	291.79	518.2	326.94	278	525.46	391.98	368.84	518.38	335.43	102.97	509.19	368.04	112.3	434.09	291.32	66.242	463.98	305.58	39.53	438.2	294.9	42.666	499.38	NaN	NaN	NaN	491.62	44.216	440.63	554.13	59.17	490.95	395.1	737.75	121.8	465.71	633.27	125.58	398.18	646.32	124.19	465.59	722.34	115.28	396.84	534.27	129.39	406.49	513.7	253.93	322.54	358.22	110.77	389.55	268.44	111.4	319.54	284	117.46	386.44	345.06	106.82	345.81	105.56	103.07	375.16	102.99	185.68	295.11	76.276	150.48	311.39	42.176	179.52	301.64	48.833	116.6	475.18	38.449	67.378	503.04	44.063	180.54	562.58	59.079	126.89	353.95	1525.6	321.73	330.46	1244	335.12
